<?xml version="1.0" standalone="no"?>
<!DOCTYPE svg PUBLIC "-//W3C//DTD SVG 20010904//EN"
 "http://www.w3.org/TR/2001/REC-SVG-20010904/DTD/svg10.dtd">
<svg version="1.0" xmlns="http://www.w3.org/2000/svg"
 width="746.000000pt" height="746.000000pt" viewBox="0 0 746.000000 746.000000"
 preserveAspectRatio="xMidYMid meet">
<metadata>
Created by potrace 1.11, written by Peter Selinger 2001-2013
</metadata>
<g transform="translate(0.000000,746.000000) scale(0.100000,-0.100000)"
fill="#000000" stroke="none">
<path d="M3265 6715 c-55 -8 -131 -21 -170 -30 -38 -9 -91 -18 -117 -22 -27
-3 -48 -9 -48 -14 0 -5 -16 -9 -36 -9 -35 0 -247 -58 -309 -85 -16 -7 -82 -32
-145 -56 -105 -40 -288 -128 -430 -208 -30 -17 -62 -34 -70 -38 -8 -3 -17 -10
-20 -14 -3 -4 -47 -34 -97 -68 -51 -34 -93 -66 -93 -71 0 -6 -5 -10 -11 -10
-31 0 -233 -181 -394 -353 -57 -60 -71 -77 -144 -172 -17 -22 -34 -44 -39 -50
-31 -38 -93 -125 -109 -151 -10 -17 -31 -50 -47 -74 -15 -24 -38 -62 -50 -84
-13 -23 -50 -89 -84 -147 -34 -59 -62 -114 -62 -123 0 -9 -4 -16 -10 -16 -5 0
-10 -7 -10 -15 0 -8 -11 -36 -24 -62 -39 -76 -65 -136 -72 -166 -3 -15 -10
-30 -15 -33 -5 -3 -9 -14 -9 -25 0 -10 -4 -27 -9 -37 -12 -24 -32 -82 -39
-112 -3 -14 -8 -27 -12 -30 -6 -5 -23 -75 -41 -170 -4 -25 -13 -65 -19 -90
-60 -241 -61 -885 -1 -1135 9 -39 34 -149 51 -230 5 -22 13 -56 19 -75 5 -19
15 -55 22 -80 6 -25 16 -56 22 -70 5 -14 13 -34 18 -45 4 -11 11 -35 14 -52 4
-18 11 -33 16 -33 5 0 9 -11 9 -25 0 -14 5 -25 10 -25 6 0 10 -13 10 -30 0
-16 5 -30 10 -30 6 0 10 -4 10 -10 0 -11 94 -216 110 -240 5 -8 17 -31 25 -50
9 -19 19 -37 23 -40 7 -5 21 -28 53 -90 11 -20 29 -46 39 -55 11 -10 20 -22
20 -26 0 -5 14 -28 30 -51 17 -24 38 -54 48 -68 9 -14 22 -29 29 -33 7 -4 13
-13 13 -20 0 -7 16 -30 35 -52 20 -22 55 -62 78 -89 64 -74 246 -256 257 -256
5 0 12 -9 15 -20 3 -11 12 -20 18 -20 7 0 32 -19 57 -41 25 -23 84 -71 132
-106 47 -36 89 -75 92 -86 3 -12 6 -241 6 -509 l0 -488 155 0 155 0 0 399 c0
265 3 402 10 406 6 4 30 -3 53 -16 23 -12 65 -33 92 -46 28 -14 67 -33 87 -44
20 -10 43 -19 51 -19 8 0 20 -7 27 -15 7 -8 23 -15 37 -15 14 0 21 -4 18 -10
-4 -6 6 -10 24 -10 16 0 33 -5 36 -10 3 -6 14 -10 23 -10 9 0 30 -7 46 -15 15
-8 41 -15 57 -15 16 0 29 -4 29 -10 0 -5 7 -10 17 -10 17 0 113 -26 148 -41
11 -4 36 -10 55 -13 19 -3 60 -10 90 -16 187 -38 243 -43 530 -47 191 -3 308
-1 331 6 33 10 100 19 267 38 28 3 52 9 52 14 0 5 13 9 29 9 35 0 149 27 173
40 10 6 35 10 55 10 26 0 34 3 24 9 -9 6 0 10 30 13 42 5 234 67 271 88 10 6
24 10 32 10 7 0 19 7 26 15 7 8 19 15 26 15 8 0 42 13 76 30 34 16 67 30 74
30 7 0 14 4 16 8 2 4 44 28 93 52 50 25 92 48 93 53 2 4 10 7 18 7 8 0 14 4
14 10 0 5 15 16 33 25 46 21 43 19 202 137 61 45 115 87 120 93 31 38 75 12
75 -43 0 -17 4 -33 9 -36 5 -3 11 -20 14 -38 15 -90 30 -148 37 -148 7 0 14
-35 23 -117 1 -11 5 -19 9 -17 3 2 12 -22 18 -53 7 -32 16 -66 21 -75 5 -10 9
-31 9 -47 0 -17 4 -32 9 -35 4 -3 11 -26 15 -52 3 -26 10 -52 16 -58 5 -7 10
-29 12 -49 1 -20 6 -37 10 -37 4 0 8 -13 8 -28 0 -15 11 -61 25 -102 13 -41
25 -87 25 -102 0 -16 5 -28 10 -28 6 0 10 -13 10 -29 0 -62 -3 -61 171 -61 87
0 159 3 159 8 -1 4 -8 36 -16 72 -9 36 -18 82 -21 103 -3 20 -9 40 -14 43 -5
3 -9 17 -9 32 -1 15 -7 38 -15 52 -8 14 -14 41 -15 60 0 20 -4 40 -8 45 -5 6
-17 47 -28 93 -10 45 -22 82 -26 82 -5 0 -8 20 -8 45 0 25 -4 45 -10 45 -5 0
-10 11 -10 25 0 14 -7 42 -15 62 -8 19 -15 45 -15 57 0 12 -4 26 -9 31 -6 6
-11 21 -13 35 -2 14 -6 30 -10 35 -3 6 -9 36 -12 67 -4 32 -12 60 -17 63 -5 4
-9 17 -9 30 0 13 -4 27 -10 30 -5 3 -10 21 -10 40 0 19 -4 36 -9 40 -6 3 -13
27 -17 53 -3 26 -9 52 -13 57 -3 6 -11 37 -17 70 -13 68 -4 102 38 147 13 15
35 41 48 59 14 18 33 40 43 48 9 9 17 22 17 29 0 8 11 23 25 34 14 11 25 26
25 34 0 8 4 14 8 14 5 0 18 17 30 38 11 21 30 46 41 56 11 10 18 23 15 27 -3
5 2 12 10 15 9 3 16 12 16 18 0 7 14 34 32 62 18 27 38 59 44 71 27 49 43 80
61 116 31 66 37 77 45 77 5 0 8 9 8 21 0 11 7 27 15 35 8 9 15 24 15 35 0 10
5 19 10 19 6 0 10 6 10 13 0 7 9 32 20 55 11 22 20 47 20 55 0 7 7 22 15 33 8
10 15 31 15 47 0 15 3 27 8 27 4 0 15 28 25 63 11 34 23 73 27 87 5 14 12 41
16 60 3 19 10 40 14 45 7 10 14 43 26 130 4 22 10 44 15 50 5 5 9 28 9 51 0
24 5 55 11 71 18 47 34 269 32 453 -1 191 -15 410 -28 429 -8 14 -22 98 -31
191 -3 30 -9 64 -14 75 -14 34 -40 140 -40 164 0 12 -4 19 -10 16 -6 -4 -10
10 -10 34 0 23 -4 41 -9 41 -5 0 -12 18 -16 40 -4 22 -11 42 -16 46 -5 3 -9
15 -9 28 0 12 -4 26 -8 32 -5 5 -14 29 -21 54 -7 24 -24 67 -37 94 -13 27 -24
57 -24 67 0 9 -7 22 -15 29 -8 7 -15 21 -15 30 0 10 -3 20 -7 22 -8 3 -63 108
-63 120 0 4 -27 51 -60 105 -33 53 -60 102 -60 108 0 6 -11 22 -25 35 -14 13
-25 28 -25 35 0 6 -9 18 -20 28 -11 9 -20 24 -20 32 0 8 -5 15 -10 15 -6 0
-14 8 -17 17 -4 10 -17 27 -30 39 -13 12 -23 25 -23 30 0 25 -299 344 -322
344 -4 0 -8 7 -8 15 0 8 -3 15 -7 15 -7 0 -74 54 -153 123 -14 12 -39 31 -54
42 -16 11 -34 26 -41 33 -8 6 -18 12 -23 12 -6 0 -12 3 -14 8 -4 11 -104 82
-114 82 -5 0 -35 18 -67 40 -31 22 -60 40 -62 40 -9 0 -90 54 -93 63 -2 4 -10
7 -17 7 -7 0 -39 15 -72 33 -74 42 -288 137 -308 137 -8 0 -15 5 -15 10 0 6
-10 10 -23 10 -13 0 -29 6 -36 13 -6 6 -15 12 -19 12 -9 0 -82 22 -166 51 -38
13 -82 24 -98 24 -15 0 -28 5 -28 10 0 6 -25 10 -55 10 -30 0 -55 4 -55 9 0 8
-68 24 -190 42 -110 17 -670 19 -785 4z m680 -305 c3 -5 23 -10 43 -9 20 0 84
-9 142 -21 58 -12 124 -24 148 -27 23 -3 42 -8 42 -12 0 -4 29 -13 65 -20 40
-8 62 -17 58 -24 -3 -6 -1 -7 5 -3 6 4 28 -1 49 -10 21 -9 52 -20 68 -24 53
-15 105 -36 117 -48 7 -7 18 -12 25 -12 18 0 167 -71 171 -81 2 -5 10 -9 17
-9 8 0 36 -13 62 -30 26 -16 55 -30 65 -30 10 0 18 -7 18 -15 0 -8 8 -15 19
-15 10 0 24 -7 31 -15 7 -8 16 -15 20 -15 4 0 36 -19 70 -42 34 -24 69 -47 78
-53 10 -5 19 -12 22 -15 3 -3 39 -30 80 -60 100 -73 115 -86 272 -236 57 -56
149 -154 143 -154 -3 0 3 -8 13 -18 24 -26 56 -67 149 -192 26 -36 51 -66 55
-68 5 -2 8 -12 8 -23 0 -10 4 -19 8 -19 10 0 48 -81 44 -93 -1 -5 2 -6 7 -3 9
6 38 -52 33 -67 -1 -4 4 -6 10 -5 7 2 14 -7 16 -19 2 -13 8 -23 13 -23 5 0 9
-5 9 -11 0 -6 15 -43 34 -82 18 -40 36 -84 40 -99 3 -16 11 -28 16 -28 6 0 10
-9 10 -20 0 -11 4 -28 9 -38 14 -28 33 -85 38 -114 3 -16 9 -28 13 -28 4 0 10
-15 13 -32 17 -97 25 -130 35 -140 7 -7 12 -28 12 -48 0 -20 4 -40 8 -45 5 -6
17 -59 26 -120 9 -60 19 -121 22 -135 20 -93 27 -202 26 -390 0 -239 -8 -348
-25 -369 -9 -12 -9 -13 1 -7 6 4 12 3 12 -3 0 -5 -4 -13 -10 -16 -5 -3 -10
-23 -10 -43 0 -43 -33 -208 -43 -218 -4 -4 -7 -17 -7 -28 0 -11 -6 -38 -14
-61 -7 -22 -26 -78 -41 -125 -15 -47 -31 -89 -36 -95 -5 -5 -9 -19 -9 -32 0
-13 -4 -23 -10 -23 -5 0 -10 -13 -10 -30 0 -16 -4 -30 -9 -30 -5 0 -12 -11
-15 -25 -4 -14 -11 -25 -17 -25 -6 0 -8 -3 -5 -8 4 -6 -28 -78 -61 -137 -6
-11 -21 -41 -33 -67 -11 -25 -28 -52 -36 -58 -7 -7 -14 -16 -14 -21 0 -12 -71
-123 -81 -127 -5 -2 -18 -23 -30 -48 -13 -24 -26 -44 -31 -44 -4 0 -8 -7 -8
-15 0 -8 -4 -15 -10 -15 -5 0 -10 -7 -10 -15 0 -8 -5 -15 -10 -15 -6 0 -14 -8
-17 -17 -7 -18 -33 -51 -70 -90 -13 -13 -23 -27 -23 -30 0 -3 -12 -18 -27 -33
-16 -14 -52 -52 -81 -83 -29 -31 -58 -57 -63 -57 -6 0 -9 -3 -7 -7 2 -5 -13
-24 -34 -44 -21 -21 -38 -35 -38 -32 0 2 -17 -13 -37 -34 -21 -21 -56 -52 -78
-68 -22 -17 -42 -33 -45 -36 -12 -14 -172 -123 -200 -136 -8 -4 -24 -15 -34
-25 -11 -10 -24 -18 -29 -18 -6 0 -25 -11 -43 -25 -18 -14 -36 -25 -41 -25 -5
0 -61 -27 -126 -60 -64 -33 -126 -60 -137 -60 -11 0 -20 -4 -20 -9 0 -5 -13
-12 -30 -16 -16 -4 -32 -11 -35 -16 -4 -5 -17 -9 -31 -9 -13 0 -32 -4 -42 -9
-44 -23 -92 -41 -112 -41 -11 0 -18 -4 -15 -10 4 -6 -8 -10 -30 -10 -19 0 -43
-4 -53 -9 -23 -13 -145 -41 -176 -41 -14 0 -28 -5 -31 -10 -3 -6 -32 -10 -63
-10 -34 -1 -65 -7 -76 -15 -14 -10 -45 -15 -103 -15 -51 0 -83 -4 -83 -10 0
-8 -79 -10 -247 -6 -269 5 -407 16 -425 34 -7 7 -33 12 -59 12 -44 0 -202 35
-262 59 -16 6 -39 11 -53 11 -13 0 -24 5 -24 10 0 6 -12 10 -28 10 -15 0 -36
6 -47 13 -11 7 -38 18 -60 25 -67 22 -120 46 -128 59 -4 7 -15 9 -23 6 -9 -3
-19 -2 -23 3 -7 11 -176 94 -190 94 -5 0 -11 4 -13 9 -5 13 -86 61 -104 61
-10 0 -14 3 -11 7 6 6 -14 21 -53 39 -47 23 -281 199 -346 262 -13 12 -28 22
-35 22 -6 0 -8 7 -5 16 3 9 2 12 -5 9 -5 -4 -23 7 -40 24 -16 17 -34 31 -39
31 -6 0 -10 4 -10 10 0 5 -27 37 -60 70 -33 33 -60 63 -60 65 0 3 -16 21 -35
39 -19 19 -35 37 -35 40 0 3 -8 15 -17 25 -37 40 -67 77 -90 113 -13 21 -28
38 -33 38 -6 0 -10 7 -10 15 0 8 -16 37 -35 64 -19 26 -35 52 -35 56 0 5 -11
23 -25 41 -14 18 -25 38 -25 45 0 7 -11 27 -25 45 -14 18 -25 42 -25 52 0 11
-3 22 -7 24 -11 4 -63 110 -63 126 0 7 -4 20 -9 30 -22 40 -41 86 -41 99 0 7
-4 21 -9 31 -21 40 -31 71 -46 132 -9 36 -23 85 -32 110 -17 50 -42 171 -50
240 -3 25 -10 48 -15 51 -6 4 -13 40 -15 80 -2 41 -9 83 -14 94 -12 25 -5 542
9 665 9 81 22 153 43 230 5 19 11 46 14 60 7 37 27 112 35 135 4 11 14 40 21
65 7 25 17 54 23 65 5 11 11 29 13 40 2 11 8 24 13 29 6 6 10 17 10 25 0 8 27
70 60 137 33 67 60 125 60 129 0 5 10 22 23 39 12 17 29 43 36 59 8 15 18 27
22 27 5 0 6 6 3 13 -2 7 4 22 16 32 11 10 20 24 20 30 0 7 7 16 16 19 8 3 13
10 10 15 -4 5 0 16 8 24 8 7 31 40 52 73 41 65 135 187 146 192 5 2 8 8 8 13
0 5 15 24 33 42 17 18 45 48 61 67 16 19 43 45 59 58 17 12 27 22 21 22 -5 0
8 16 29 35 21 19 40 35 43 35 3 0 20 15 37 33 18 17 46 43 62 56 17 13 44 36
61 50 17 14 44 35 59 46 16 11 40 30 53 43 14 12 30 22 37 22 7 0 19 7 26 16
7 9 22 20 34 25 30 13 58 32 76 52 9 9 25 17 35 18 11 0 33 9 49 20 17 11 38
22 48 25 9 4 17 10 17 15 0 5 6 9 14 9 7 0 34 11 60 25 26 14 53 25 61 25 7 0
15 5 17 11 2 5 10 11 18 13 8 2 28 8 43 14 16 7 37 12 48 12 11 0 17 5 14 10
-3 6 3 10 13 10 11 0 33 7 48 15 16 8 41 15 57 15 15 0 27 4 27 9 0 5 12 11
28 14 60 12 131 32 138 40 4 4 20 7 36 7 15 0 28 5 28 10 0 6 15 10 34 10 18
0 46 4 62 9 55 17 219 44 256 42 20 -1 39 3 43 9 8 14 591 14 600 0z"/>
<path d="M5295 4721 c-73 -24 -107 -46 -130 -80 -11 -17 -23 -31 -27 -31 -5 0
-8 -9 -8 -19 0 -11 -4 -23 -10 -26 -17 -10 -13 -170 5 -185 8 -7 15 -18 15
-24 1 -19 54 -73 95 -96 59 -34 174 -34 238 -1 26 13 47 29 47 35 0 6 8 16 18
22 29 19 72 118 72 168 0 47 -30 125 -56 147 -8 6 -14 17 -14 23 0 13 -82 59
-114 63 -11 2 -25 8 -30 13 -14 14 -42 11 -101 -9z"/>
<path d="M2295 3980 c-3 -5 -17 -10 -31 -10 -46 0 -105 -52 -151 -132 -17 -29
-23 -54 -23 -103 0 -35 5 -67 10 -70 6 -3 10 -13 10 -21 0 -9 11 -30 25 -48
14 -18 25 -37 25 -42 0 -5 28 -21 61 -36 74 -34 172 -38 222 -11 43 24 97 74
97 90 0 7 4 13 10 13 18 0 40 71 40 129 0 107 -94 231 -176 231 -12 0 -26 5
-29 10 -3 6 -24 10 -45 10 -21 0 -42 -4 -45 -10z"/>
<path d="M5198 3605 c-2 -3 -31 -8 -64 -11 -70 -7 -245 -23 -329 -30 -33 -3
-69 -9 -80 -14 -11 -5 -56 -11 -100 -14 -44 -3 -116 -12 -160 -21 -107 -22
-159 -32 -230 -46 -33 -6 -64 -15 -70 -20 -5 -5 -33 -9 -62 -9 -29 0 -53 -4
-53 -10 0 -5 -15 -10 -34 -10 -19 0 -41 -7 -50 -15 -8 -8 -26 -15 -40 -15 -28
0 -151 -31 -213 -54 -21 -7 -63 -19 -93 -26 -30 -7 -64 -19 -75 -26 -11 -8
-30 -14 -42 -14 -13 0 -31 -4 -41 -9 -9 -5 -44 -17 -77 -27 -33 -10 -64 -22
-69 -26 -6 -4 -23 -8 -39 -8 -16 0 -26 -4 -22 -10 3 -6 -4 -10 -17 -10 -13 0
-36 -7 -52 -15 -15 -8 -37 -15 -47 -15 -11 0 -19 -4 -19 -10 0 -5 -12 -10 -28
-10 -15 0 -36 -6 -47 -14 -11 -8 -39 -19 -63 -26 -23 -7 -42 -17 -42 -22 0 -4
-8 -8 -19 -8 -10 0 -38 -11 -62 -24 -24 -13 -55 -27 -69 -31 -35 -11 -100 -65
-100 -84 0 -9 -7 -25 -15 -35 -20 -26 -8 -74 38 -151 39 -65 131 -195 139
-195 4 0 8 -7 8 -15 0 -8 5 -15 10 -15 6 0 10 -6 10 -14 0 -8 10 -22 23 -31
12 -8 22 -20 22 -25 0 -6 4 -10 10 -9 5 0 12 -7 15 -16 6 -17 210 -243 221
-244 3 -1 26 -19 50 -42 24 -22 56 -47 71 -55 15 -8 31 -20 35 -27 4 -8 44
-37 88 -65 44 -29 85 -55 90 -59 18 -14 102 -53 114 -53 6 0 11 -4 11 -10 0
-5 7 -7 15 -4 8 4 15 2 15 -3 0 -5 20 -14 45 -21 25 -7 45 -15 45 -20 0 -4 19
-6 41 -4 28 3 44 0 50 -9 11 -19 338 -20 360 -2 8 7 36 13 61 15 25 2 44 6 41
11 -2 4 7 7 21 7 13 0 31 7 40 15 8 8 18 15 22 15 14 0 114 54 114 62 0 4 7 8
15 8 8 0 15 5 15 10 0 6 7 10 15 10 9 0 18 7 21 15 4 8 10 15 15 15 10 0 53
35 85 70 77 84 114 120 124 120 5 0 10 5 10 11 0 11 60 97 92 133 10 11 20 28
24 38 3 10 10 18 15 18 5 0 9 5 9 11 0 6 11 25 25 43 14 18 25 38 25 44 0 7 4
12 9 12 5 0 11 8 15 18 3 9 19 42 36 72 16 30 30 60 30 68 0 7 7 15 15 18 8 4
15 15 15 25 0 10 5 19 10 19 6 0 10 9 10 21 0 11 11 37 25 57 14 20 25 43 25
52 0 8 16 46 35 83 19 38 35 75 35 84 0 8 6 27 14 41 19 37 51 125 71 197 10
33 21 68 26 77 5 10 9 31 9 47 0 16 6 31 13 34 7 2 12 21 11 49 -1 47 -28 98
-68 128 -39 29 -113 49 -128 35z m-193 -356 c4 -12 2 -31 -3 -43 -6 -11 -19
-43 -28 -71 -27 -73 -29 -75 -169 -105 -65 -14 -116 -27 -185 -45 -36 -9 -81
-19 -100 -22 -19 -3 -39 -9 -45 -13 -5 -4 -32 -11 -60 -15 -27 -4 -54 -10 -60
-15 -5 -4 -23 -10 -40 -13 -107 -21 -136 -28 -190 -46 -33 -11 -77 -21 -97
-21 -20 0 -39 -4 -42 -9 -3 -5 -23 -11 -43 -14 -59 -7 -338 -80 -341 -89 -2
-4 -26 -8 -53 -8 -27 0 -49 -4 -49 -9 0 -8 -56 -23 -155 -41 -27 -5 -68 -14
-90 -20 -77 -22 -79 -22 -115 12 -49 47 -77 103 -60 123 7 8 19 15 26 15 8 0
14 5 14 10 0 6 11 10 24 10 14 0 28 5 32 11 3 6 15 8 26 6 11 -3 17 -3 14 0
-8 8 63 39 133 59 31 8 70 21 86 29 42 18 106 37 137 38 14 1 24 5 22 8 -5 9
137 50 149 42 5 -3 7 -1 4 5 -5 6 12 13 43 17 28 4 48 10 45 15 -3 4 12 10 33
13 20 2 62 12 92 21 30 9 91 23 135 32 44 9 88 20 97 25 10 5 33 9 51 9 18 0
38 5 44 11 6 6 44 15 85 20 91 11 139 19 158 26 8 4 26 8 40 9 14 2 57 8 95
14 39 5 116 13 172 18 57 4 106 11 109 15 16 15 53 6 59 -14z m-700 -1005 c66
-11 74 -43 18 -68 -21 -9 -54 -25 -73 -35 -65 -35 -123 -46 -235 -46 -125 1
-175 14 -175 49 0 17 16 29 73 55 39 19 95 40 122 47 49 13 186 12 270 -2z"/>
</g>
</svg>
